<svg xmlns="http://www.w3.org/2000/svg" viewBox="0 0 256 256" fill="none">
  <defs>
    <linearGradient id="bgGrad" x1="0%" y1="0%" x2="100%" y2="100%">
      <stop offset="0%" style="stop-color:#6366f1;stop-opacity:1" />
      <stop offset="100%" style="stop-color:#8b5cf6;stop-opacity:1" />
    </linearGradient>
    <linearGradient id="card1Grad" x1="0%" y1="0%" x2="100%" y2="100%">
      <stop offset="0%" style="stop-color:#ffffff;stop-opacity:0.95" />
      <stop offset="100%" style="stop-color:#f1f5f9;stop-opacity:0.95" />
    </linearGradient>
    <linearGradient id="card2Grad" x1="0%" y1="0%" x2="100%" y2="100%">
      <stop offset="0%" style="stop-color:#ffffff;stop-opacity:0.85" />
      <stop offset="100%" style="stop-color:#e2e8f0;stop-opacity:0.85" />
    </linearGradient>
    <linearGradient id="card3Grad" x1="0%" y1="0%" x2="100%" y2="100%">
      <stop offset="0%" style="stop-color:#ffffff;stop-opacity:0.75" />
      <stop offset="100%" style="stop-color:#cbd5e1;stop-opacity:0.75" />
    </linearGradient>
  </defs>
  <rect x="8" y="8" width="240" height="240" rx="36" fill="url(#bgGrad)"/>
  <rect x="52" y="100" width="136" height="100" rx="12" fill="url(#card3Grad)" transform="rotate(-8 120 150)"/>
  <rect x="44" y="76" width="148" height="108" rx="12" fill="url(#card2Grad)" transform="rotate(-4 118 130)"/>
  <rect x="40" y="52" width="160" height="116" rx="14" fill="url(#card1Grad)"/>
  <rect x="56" y="68" width="32" height="8" rx="4" fill="#6366f1"/>
  <rect x="56" y="84" width="80" height="6" rx="3" fill="#cbd5e1"/>
  <rect x="56" y="96" width="60" height="6" rx="3" fill="#e2e8f0"/>
  <rect x="56" y="108" width="72" height="6" rx="3" fill="#e2e8f0"/>
  <rect x="140" y="82" width="48" height="36" rx="6" fill="#f1f5f9" stroke="#e2e8f0" stroke-width="1.5"/>
  <line x1="148" y1="92" x2="180" y2="92" stroke="#94a3b8" stroke-width="2" stroke-linecap="round"/>
  <line x1="148" y1="100" x2="172" y2="100" stroke="#94a3b8" stroke-width="2" stroke-linecap="round"/>
  <line x1="148" y1="108" x2="176" y2="108" stroke="#94a3b8" stroke-width="2" stroke-linecap="round"/>
  <g transform="translate(192, 48)">
    <circle cx="16" cy="16" r="14" fill="#fbbf24" opacity="0.9"/>
    <g transform="translate(16, 16)" fill="#78350f">
      <circle r="4"/>
      <g opacity="0.8">
        <rect x="-2" y="-14" width="4" height="6" rx="1"/>
        <rect x="-2" y="8" width="4" height="6" rx="1"/>
        <rect x="-14" y="-2" width="6" height="4" rx="1"/>
        <rect x="8" y="-2" width="6" height="4" rx="1"/>
        <rect x="-11" y="-11" width="4" height="5" rx="1" transform="rotate(-45 0 0)"/>
        <rect x="7" y="-11" width="4" height="5" rx="1" transform="rotate(45 0 0)"/>
        <rect x="-11" y="6" width="4" height="5" rx="1" transform="rotate(45 0 0)"/>
        <rect x="7" y="6" width="4" height="5" rx="1" transform="rotate(-45 0 0)"/>
      </g>
    </g>
  </g>
  <g transform="translate(32, 148)">
    <circle cx="12" cy="12" r="10" fill="#10b981" opacity="0.9"/>
    <path d="M6 12 L10 16 L18 8" stroke="white" stroke-width="2.5" stroke-linecap="round" stroke-linejoin="round" fill="none"/>
  </g>
  <g transform="translate(204, 156)">
    <circle cx="14" cy="14" r="12" fill="#3b82f6" opacity="0.9"/>
    <path d="M7 14 L12 19 L21 9" stroke="white" stroke-width="2.5" stroke-linecap="round" stroke-linejoin="round" fill="none"/>
  </g>
  <path d="M60 148 Q100 165 140 150" stroke="#94a3b8" stroke-width="2" stroke-dasharray="4 4" fill="none" opacity="0.6"/>
  <path d="M70 160 Q110 175 160 160" stroke="#94a3b8" stroke-width="2" stroke-dasharray="4 4" fill="none" opacity="0.5"/>
</svg>
